<svg xmlns="http://www.w3.org/2000/svg" enable-background="new 0 0 122.181 172.111" viewBox="0 0 122.181 172.111"><path d="M88.137,124.938c-5.772,2.113-12.526,3.305-20.481,3.593c-0.713,0.026-1.453,0.032-2.186,0.043
		c-0.555,0.009-1.09,0.032-1.656,0.033h-0.002c-0.944,0-1.855-0.141-2.721-0.386c-0.867,0.246-1.777,0.386-2.722,0.386h-0.002
		c-0.566-0.001-1.102-0.024-1.657-0.033c-8.902-0.14-16.376-1.334-22.665-3.636c-1.242-0.455-2.454-0.937-3.607-1.478
		c-0.763-0.354-1.5-0.74-2.224-1.141c-0.15,0.078-0.3,0.155-0.45,0.233c-5.702,2.991-11.495,6.329-16.49,10.212
		c-2.504,1.973-4.84,4.055-6.952,6.774c-1.05,1.37-2.053,2.919-2.875,4.828c-0.813,1.898-1.445,4.221-1.447,6.857
		c-0.028,2.799,0.818,5.87,2.298,8.289c1.134,1.919,2.746,3.452,4.261,4.433c2.308,1.489,4.277,1.979,5.858,2.28
		c1.599,0.281,2.913,0.332,4.159,0.337c3.686-0.035,7.116-0.509,11.09-0.977c0.64-0.075,1.29-0.15,1.962-0.224
		c4.774-0.543,10.183-1.048,16.067-1.048c4.871,0.004,10.037,0.351,15.398,1.293c5.761,1.013,11.748,2.715,17.843,5.447
		c1.595,0.716,3.264,1.055,4.905,1.055c4.383,0.001,8.571-2.419,10.676-6.524c0.096-0.186,0.193-0.372,0.28-0.566
		c2.711-6.048,0.01-13.147-6.036-15.861c-9.595-4.308-18.979-6.661-27.674-7.835c-5.341-0.722-10.423-1-15.13-1.007
		c0.961-0.454,1.899-0.888,2.802-1.298c2.965-1.354,5.568-2.472,7.409-3.24c0.195-0.082,0.376-0.157,0.554-0.231h4.914h3.825
		c2.366,0.982,6.323,2.677,10.759,4.77c-2.464,0.004-5.034,0.086-7.686,0.262c7.336,1.507,14.371,3.759,21.047,6.757
		c7.039,3.161,10.199,11.458,7.04,18.502c3.114,0.373,5.964,0.698,8.984,0.727c1.664-0.02,3.434-0.066,5.865-0.732
		c1.211-0.351,2.623-0.885,4.151-1.882c1.514-0.981,3.126-2.513,4.263-4.433c1.472-2.427,2.323-5.476,2.296-8.291
		c-0.002-2.637-0.635-4.958-1.447-6.856c-1.57-3.566-3.64-5.936-5.773-8.075c-3.76-3.664-8.085-6.579-12.688-9.362
		c-2.713-1.621-5.531-3.168-8.308-4.61c-0.723,0.4-1.459,0.785-2.221,1.139C90.592,124.002,89.379,124.484,88.137,124.938z"/><path d="M29.853,167.352c-0.341,0.037-0.666,0.075-0.997,0.112c2.289,2.954,5.819,4.646,9.485,4.646
		c1.642,0,3.311-0.339,4.907-1.055c4.101-1.838,8.152-3.204,12.12-4.215c-3.13-0.335-6.345-0.52-9.675-0.523
		C39.772,166.317,34.363,166.84,29.853,167.352z"/><ellipse cx="61.092" cy="22.5" rx="22.495" ry="22.495" transform="rotate(-76.891 61.096 22.5)"/><path d="M28.267,120.046c0.686,0.409,1.394,0.797,2.125,1.163c0.297,0.149,0.594,0.299,0.898,0.44
		c0.889,0.418,1.808,0.808,2.756,1.173c6.007,2.312,13.233,3.538,21.925,3.738c0.616,0.014,1.225,0.033,1.855,0.036
		c-0.865-0.65-1.625-1.43-2.24-2.321c-1.114-1.612-1.771-3.564-1.771-5.667c0-2.715,1.091-5.178,2.854-6.981
		c0.364-0.373,0.761-0.712,1.18-1.025c-2.837-0.012-5.396-0.156-7.695-0.405c-7.866-0.853-12.719-2.918-15.383-5.043
		c-0.258-0.204-0.497-0.409-0.725-0.614c-1.344-1.21-2.188-2.447-2.808-3.846c-0.261-0.598-0.46-1.25-0.629-1.929
		c-0.292-1.176-0.46-2.462-0.46-3.895c-0.058-4.347,1.561-9.782,3.897-14.671v21.37c0.521,0.717,1.146,1.371,1.964,2.016
		c2.356,1.88,8.364,5.025,22.219,5.025h0.138c0.946,0,1.857,0.141,2.726,0.387c0.868-0.246,1.779-0.387,2.725-0.387h0.138
		c13.855,0,19.863-3.145,22.219-5.025c0.817-0.644,1.442-1.299,1.963-2.015V80.198c2.337,4.889,3.955,10.325,3.897,14.672
		c0,1.433-0.167,2.719-0.46,3.895c-0.169,0.679-0.368,1.331-0.629,1.929c-0.62,1.399-1.463,2.636-2.808,3.846
		c-0.228,0.205-0.466,0.409-0.724,0.613c-3.442,2.747-10.537,5.395-23.078,5.449c-0.177,0.001-0.343,0.007-0.522,0.006
		c-0.921,0-1.803,0.164-2.626,0.45c-0.032,0.011-0.064,0.023-0.095,0.035c-0.774,0.28-1.492,0.675-2.134,1.167
		c-1.908,1.462-3.145,3.757-3.145,6.348c0,0.558,0.058,1.103,0.167,1.629c0.565,2.735,2.531,4.95,5.111,5.885
		c0.851,0.309,1.765,0.485,2.722,0.485c0.186,0,0.359-0.01,0.544-0.011c0.63-0.003,1.239-0.022,1.854-0.036
		c0.697-0.016,1.402-0.027,2.081-0.057c7.776-0.338,14.32-1.555,19.844-3.681c0.948-0.365,1.867-0.755,2.756-1.173
		c0.305-0.142,0.601-0.292,0.899-0.441c4.52-2.263,8.201-5.373,10.859-8.976c1.2-1.628,2.197-3.353,2.964-5.147
		c1.74-3.998,2.422-8.18,2.42-12.216c-0.018-6.881-1.89-13.425-4.418-19.282c-2.551-5.856-5.788-11.015-9.075-15.049
		c-2.234-2.697-4.358-4.881-7.011-6.618c-1.378-0.82-2.889-1.75-5.411-2.026c-0.551-0.125-1.122-0.196-1.711-0.196H41.774
		c-0.589,0-1.16,0.072-1.711,0.196c-2.522,0.276-4.033,1.206-5.411,2.026c-2.653,1.736-4.777,3.92-7.011,6.618
		c-3.287,4.034-6.524,9.193-9.075,15.049c-2.528,5.856-4.4,12.4-4.418,19.282c-0.002,4.036,0.68,8.218,2.42,12.216
		c0.767,1.794,1.764,3.519,2.964,5.147C21.761,115.253,24.709,117.926,28.267,120.046z"/></svg>