<svg xmlns="http://www.w3.org/2000/svg" data-name="Layer 1" viewBox="0 0 100 100"><path d="M81.31,20.55,80,19.16a1.89,1.89,0,0,1-2.2-.95,1.79,1.79,0,1,1,3.29-.16l1.44,1.5,2.63-2.35-1.27-1.31a1.81,1.81,0,0,1-1.83-3,1.81,1.81,0,0,1,3,1.94l1.29,1.35,2.86-2.55c-.29-.3-.56-.57-.82-.85a.85.85,0,0,1,0-1.4c.37-.37.76-.72,1.12-1.1a.9.9,0,0,1,1.48,0c.26.3.59.55.92.86.19-.07.34-.3.54-.46s.36-.32.58-.5l2.1,2.17-1,1.1.26.31c.23.24.47.47.7.72a.8.8,0,0,1,0,1.28c-.39.39-.8.78-1.21,1.16s-.89.51-1.42,0c-.26-.26-.53-.5-.76-.72l-1.18,1.07,1.5,1.57.59,0a1.76,1.76,0,0,1,1.81,1.77,1.79,1.79,0,0,1-3.57.05c0-.22,0-.45.06-.7l-.19-.21-1.28-1.33-2.45,2.53,1.51,1.59.58,0a1.79,1.79,0,1,1-1.74,1.88,6.2,6.2,0,0,1,.07-.79L85.76,22,67.51,40.92c.14.19.25.36.38.52a16.51,16.51,0,0,1,2.88,5.89,11.57,11.57,0,0,1-2.84,11.06,16.92,16.92,0,0,1-3.52,3c-.24.16-.52.27-.78.41-.71.37-1.43.74-2.13,1.13a5.06,5.06,0,0,0-.76.55,3.5,3.5,0,0,0-1.46,2.43,1.69,1.69,0,0,1-.19-.19,3.52,3.52,0,0,0-3.94-1.22,7.39,7.39,0,0,0-2.52,1.23,13.11,13.11,0,0,0-4.84,6.42,5.46,5.46,0,0,0-.32,2.57,3.45,3.45,0,0,0,1.81,2.66l.34.19c-.06.23-.26.32-.4.46a11.75,11.75,0,0,0-2.81,3.68,16.34,16.34,0,0,0-.67,1.81c-1.73,5.46-5.31,9-10.94,10.21a13.72,13.72,0,0,1-9.07-1.2,19.46,19.46,0,0,1-5.55-4.14c-.83-.85-1.6-1.76-2.36-2.67a15.37,15.37,0,0,0-1.43-1.37A27.27,27.27,0,0,1,12,79.37,14.65,14.65,0,0,1,9.5,72.62a13.76,13.76,0,0,1,4.32-11.89A13.27,13.27,0,0,1,20,57.29a12.29,12.29,0,0,0,6.29-3.63,2.16,2.16,0,0,0,.16-.22c.1.17.17.27.23.39a3.43,3.43,0,0,0,3.14,2,7.33,7.33,0,0,0,3.39-.74A13.3,13.3,0,0,0,39,50.17a6,6,0,0,0,.94-2.37,3.37,3.37,0,0,0-.85-2.95c-.17-.18-.33-.37-.49-.55,0,0,0,0,0,0a3.42,3.42,0,0,0,2.25-1.2,9.44,9.44,0,0,0,1.65-2.47,12.72,12.72,0,0,1,1.83-2.74A14.47,14.47,0,0,1,49,34.14a11.25,11.25,0,0,1,3.9-1.1,12.9,12.9,0,0,1,7.63,1.78c1,.53,1.85,1.17,2.8,1.78C63.64,36.44,80.68,21.24,81.31,20.55Zm-43.87,41L82.83,20.33,82.51,20l-9.1,8.25-9.08,8.24-9,8.2-9.08,8.24c-3,2.74-6,5.49-9.13,8.26l-.3-.38a.55.55,0,0,0-.83-.11c-.25.22-.21.52.09.87l.31.36c-2.05,2.21-4.08,4.4-6.14,6.64l-.75-.82c-.1.13-.18.23-.24.32L17.56,85v0l0,0c5-3.06,17.34-11,17.65-11.35L34.52,73l6.85-5.86c.16.14.26.25.39.35a.5.5,0,0,0,.71,0,.51.51,0,0,0,0-.71c-.1-.14-.22-.26-.34-.41L86.38,21.06,86,20.77,41.81,66l-.64-.67-.61-.64L89.13,17l-.28-.38L40.21,64.34l-1.15-1.21L86.73,17.82a1.81,1.81,0,0,0-.15-.19,1.16,1.16,0,0,0-.2-.16L38.79,62.71Z"/><path d="M39.73 65.48l1.34 1.21q-3.47 3-6.82 5.84l-1-.92C35.39 69.54 37.59 67.51 39.73 65.48zM31.59 69.78l-1-.93 6.07-6.57L38 63.5zM38.3 63.86l1.15 1.21-6.51 6.14-1.07-1zM28.09 70.92a.52.52 0 0 1 .54-.52.6.6 0 0 1 .51.57.57.57 0 0 1-.53.5A.54.54 0 0 1 28.09 70.92zM31 72.87a.5.5 0 0 1 .51.53.53.53 0 1 1-1.05 0A.5.5 0 0 1 31 72.87zM29.78 72.69a.52.52 0 0 1-.52-.54.53.53 0 0 1 1 0A.54.54 0 0 1 29.78 72.69zM32.65 74.61a.51.51 0 0 1-.53.52.55.55 0 0 1-.52-.49.59.59 0 0 1 .52-.56A.53.53 0 0 1 32.65 74.61z"/></svg>