<?xml version="1.0" encoding="utf-8"?>
<svg xmlns="http://www.w3.org/2000/svg" xmlns:xlink="http://www.w3.org/1999/xlink" version="1.1" x="0px" y="0px" viewBox="0 0 128 128" style="enable-background:new 0 0 128 128;" xml:space="preserve">
<style type="text/css">
	.st0{fill:none;stroke:#000000;stroke-width:4;stroke-miterlimit:10;}
	.st1{display:none;}
</style>
<g id="Layer_1">
</g>
<g id="Taxi">
</g>
<g id="Car">
</g>
<g id="Bus">
</g>
<g id="Subway">
</g>
<g id="Plane">
	<g>
		<path d="M79,118c-0.4,0-0.8-0.1-1.1-0.2L64,113.7l-13.9,4.1c-1.2,0.4-2.5,0.1-3.5-0.6c-1-0.8-1.6-1.9-1.6-3.2v-3.3    c0-1.3,0.6-2.5,1.7-3.3l8.3-5.9l0-24L23.9,87.7c-1.8,0.6-3.8,0.3-5.4-0.8c-1.6-1.1-2.5-2.9-2.5-4.9v-2.3c0-2.1,1-4,2.8-5.1    l36.1-22.7c0-0.2,0.1-0.6,0.1-1.5V16.6c0-3,3.6-6.6,8-6.6h2c4.4,0,8,3.6,8,6.6v33.7c0,0.9,0.1,1.4,0.1,1.5l36.1,22.7    c1.8,1.1,2.8,3,2.8,5.1v2.3c0,2-0.9,3.7-2.5,4.9c-1.6,1.1-3.5,1.4-5.4,0.8L73,77.5l0,24l8.3,5.9c1.1,0.8,1.7,2,1.7,3.3v3.3    c0,1.3-0.6,2.4-1.6,3.2C80.7,117.7,79.9,118,79,118z M64,109.7c0.4,0,0.8,0.1,1.1,0.2L79,114l0-3.3l-8.3-5.9    c-1.1-0.8-1.7-2-1.7-3.3v-24c0-1.3,0.6-2.5,1.7-3.3c1-0.8,2.4-1,3.6-0.6l31.1,10.2c0.6,0.2,1.3,0.1,1.8-0.3c0.5-0.4,0.8-1,0.8-1.7    v-2.3c0-0.7-0.4-1.4-1-1.7L70.9,55.2c-1.6-1-1.9-2.6-1.9-4.8V16.6c0-0.6-1.7-2.6-4-2.6h-2c-2.3,0-4,2-4,2.6v33.7    c0,2.2-0.3,3.9-1.9,4.8L20.9,77.9c-0.6,0.4-0.9,1-0.9,1.7v2.3c0,0.7,0.3,1.3,0.8,1.7c0.5,0.4,1.2,0.5,1.8,0.3l31.1-10.2    c1.2-0.4,2.5-0.2,3.6,0.6c1,0.8,1.7,2,1.7,3.3v24c0,1.3-0.6,2.5-1.7,3.3l-8.3,5.8l0,3.3l13.9-4.1C63.2,109.8,63.6,109.7,64,109.7z    "/>
	</g>
</g>
<g id="Map">
</g>
<g id="Wallet">
</g>
<g id="Ship">
</g>
<g id="Hotel">
</g>
<g id="Baggage">
</g>
<g id="Pizza">
</g>
<g id="Gas">
</g>
<g id="Home">
</g>
<g id="Tesla-station">
</g>
<g id="Trailer">
</g>

	
	<metadata>
		<rdf:RDF xmlns:rdf="http://www.w3.org/1999/02/22-rdf-syntax-ns#" xmlns:rdfs="http://www.w3.org/2000/01/rdf-schema#" xmlns:dc="http://purl.org/dc/elements/1.1/">
			<rdf:Description about="https://iconscout.com/legal#licenses" dc:title="Travel, Plane, Aircraft, Airplane, Flight, Vehical, Transport" dc:description="Travel, Plane, Aircraft, Airplane, Flight, Vehical, Transport" dc:publisher="Iconscout" dc:date="2016-12-14" dc:format="image/svg+xml" dc:language="en">
				<dc:creator>
					<rdf:Bag>
						<rdf:li>Igor Verizub</rdf:li>
					</rdf:Bag>
				</dc:creator>
			</rdf:Description>
		</rdf:RDF>
    </metadata></svg>
