<svg xmlns="http://www.w3.org/2000/svg" enable-background="new 0 0 258 246.961" viewBox="0 0 258 246.961"><path d="M258,144.961h-61.828c-1.316,2.423-3.55,4.188-6.261,4.893c-2.153,0.56-4.375,0.396-6.429-0.479
		c-2.098-0.893-3.785-2.442-4.855-4.414h-72.392c-3.53,5.567-7.123,13.127-8.659,22.354c-1.471,8.859-0.97,17.866,1.535,27.528
		c0.168,0.649,0.344,1.293,0.529,1.931c1.07,3.723,0.63,7.639-1.244,11.029c-1.871,3.391-4.953,5.848-8.676,6.921
		c-0.104,0.031-0.238,0.066-0.367,0.1c-7.663,1.992-15.387-2.41-17.582-10.02c-0.26-0.91-0.502-1.798-0.727-2.664
		c-3.522-13.504-4.22-26.83-2.07-39.604c1.003-6.015,2.648-11.888,4.878-17.575H0v102h258V144.961z"/><path d="M81.252,134.101c-4.419,7.726-8.404,17.369-10.307,28.766c-1.914,11.385-1.688,24.491,2.035,38.768
		c0.221,0.852,0.459,1.723,0.714,2.614c1.882,6.529,8.618,10.339,15.155,8.64c0.105-0.028,0.213-0.057,0.318-0.087
		c6.633-1.912,10.461-8.84,8.551-15.473c-0.189-0.654-0.369-1.314-0.544-1.985c-2.841-10.962-2.91-20.29-1.571-28.357
		c2.008-12.062,7.357-21.459,12.271-27.87c2.207-2.881,4.304-5.125,5.892-6.679c1.301-0.058,2.65-0.354,3.964-0.937
		c0.034-0.015,0.066-0.029,0.101-0.044c23.724-10.481,38.816-16.692,55.573-34.315c0.46-0.483,0.921-0.977,1.384-1.478
		c3.171,3.955,6.287,9.124,7.874,15.259c1.801,7.086,1.863,15.483-2.622,26.116c-1.731,4.064,0.159,8.764,4.226,10.496
		c1.691,0.72,3.492,0.813,5.143,0.384c2.319-0.602,4.343-2.235,5.354-4.609c5.836-13.605,6.086-26.189,3.387-36.413
		c-2.822-10.801-8.588-18.924-13.557-24.385c-3.502-3.834-6.644-6.386-8.342-7.659c-2.464,1.771-5.178,3.073-8.102,3.833
		c-9.583,2.492-19.655-0.983-25.658-8.856c-4.985-6.539-6.16-14.803-3.899-22.119c-1.88-0.952-4.088-2.23-6.181-3.834
		c-2.504-1.899-4.811-4.21-6.395-6.778c-1.583-2.591-2.531-5.345-2.548-8.861c0.005-3.958,1.278-9.169,5.52-16.014
		c2.331-3.753,1.179-8.686-2.573-11.017c-3.753-2.331-8.686-1.179-11.017,2.575c-5.419,8.705-7.934,16.918-7.93,24.456
		c-0.017,6.885,2.149,12.964,5.232,17.739c4.649,7.198,11.044,11.738,16.179,14.678c0.1,0.056,0.195,0.108,0.294,0.163
		c-5.314,12.743-11.657,21.908-28.12,28.998c-0.3-0.253-0.606-0.507-0.921-0.763c-2.777-2.234-6.142-4.567-10.216-6.469
		c-4.06-1.885-8.923-3.367-14.455-3.375c-4.154-0.012-8.64,0.904-12.835,2.927c-6.341,3.034-11.756,8.28-16.206,15.256
		c-4.473,7.013-8.188,15.883-11.372,27.334c-1.846,6.652,2.052,13.542,8.706,15.386c1.117,0.31,2.242,0.458,3.347,0.458
		c5.477,0.001,10.503-3.628,12.039-9.163c3.583-13.049,7.764-20.486,10.806-23.867c1.521-1.716,2.676-2.469,3.474-2.855
		c0.81-0.374,1.326-0.464,2.041-0.477c0.915-0.008,2.271,0.278,3.914,1.044c2.457,1.114,5.291,3.295,7.274,5.201
		c1.001,0.945,1.805,1.809,2.323,2.39c0.259,0.292,0.444,0.512,0.551,0.638c0.049,0.061,0.082,0.101,0.093,0.115
		c0.002,0.001,0.002,0.001,0.002,0.001h0c0.736,0.933,1.585,1.723,2.504,2.386c0.557,0.402,1.142,0.75,1.748,1.05
		C90.12,121.019,85.509,126.689,81.252,134.101z"/><ellipse cx="161.973" cy="54.972" rx="22.5" ry="22.5" transform="rotate(-37.332 161.984 54.974)"/></svg>