<svg xmlns="http://www.w3.org/2000/svg" id="Layer_1" enable-background="new 0 0 64 64" viewBox="0 0 64 64"><path fill="#58595b" d="M48.8839493 4.9997559h-5.671875c-6.1293945 0-11.1162109 5.012207-11.1162109 11.1733398v13.5839844c0 .4624023.2705078.8867188.6894531 1.0810547.1591797.0737305.3295898.109375.4990234.109375.2763672 0 .5512695-.0957031.7695313-.2807617l3.9233398-3.3203125h10.9067383c6.1293945 0 11.1162109-5.012207 11.1162109-11.1733398S55.0133438 4.9997559 48.8839493 4.9997559zM48.8839493 25.3464355H37.6798477c-.2836914 0-.5581055.1015625-.7680664.2817383l-2.815918 2.3828125V16.1730957c0-5.0581055 4.0893555-9.1733398 9.1162109-9.1733398h5.671875c5.0268555 0 9.1162109 4.1152344 9.1162109 9.1733398S53.9108047 25.3464355 48.8839493 25.3464355zM31.6124649 36.342041c.0571289-1.315918.0517578-6.9228516-3.8222656-10.6113281-2.6918945-2.5620117-6.6010742-3.6010742-11.6611328-3.0839844-5.9389639.8349609-8.9194326 4.3320313-10.3745108 7.1186523-1.1850586 2.2714844-1.5864258 4.9853516-1.125 7.6679688l2.1938477 11.0219727c.0307617.1533203.0205078.3129883-.0356445.4804688l-2.7421875 8.765625c-.1645508.5268555.1289063 1.0878906.65625 1.2529297.0991211.0307617.199707.0458984.2988281.0458984.425293 0 .8203125-.2744141.9541016-.7021484l2.7358398-8.7470703c.1601563-.4780273.1928711-.9916992.0947266-1.4858398l-2.1894531-10.996582c-.3828125-2.2275391-.0517578-4.4926758.9316406-6.3779297 1.800293-3.4477539 4.7875977-5.487793 8.8422842-6.059082 4.4155273-.4511719 7.7915039.40625 10.0410156 2.5478516 3.4082031 3.2446289 3.2314453 8.5537109 3.2001953 9.1489258-.0126953.2412109.0288086.4785156.1230469.7050781l3.2426758 7.796875-2.6469727.7084961c-.4755859.125-.8125.5390625-.8388672 1.0361328 0 0-.2783203 5.9223633-.2890625 6.1108398-.0136719.1293945-.121582.2299805-.2524414.2412109l-6.1948242-.8476563-.1035156-.0087891c-.4594727-.0102539-.9116211.1665039-1.2324219.4975586-.3193359.3291016-.4858398.7797852-.4570313 1.2358398l.2675781 4.2583008c.034668.5517578.5224609.9731445 1.0605469.9355469.5512695-.034668.9702148-.5097656.9355469-1.0605469l-.2392578-3.8076172 5.762207.7885742.1040039.0087891c1.1757813.0605469 2.2138672-.8540039 2.3378906-2.0229492.0048828-.0415039.0087891-.078125.2685547-5.597168l3.0317383-.8115234.2563477-.1083984c.5043945-.3027344.6904297-.9301758.4570313-1.4047852L31.6124649 36.342041z"/><path fill="#58595b" d="M52.7565079 10.4772949h-2.324707V9.4343262c0-.5522461-.4477539-1-1-1s-1 .4477539-1 1v1.0429688h-2.3251953c-.5522461 0-1 .4477539-1 1s.4477539 1 1 1h3.8687744c-.1911011.6162109-.5133667 1.4065552-1.0438843 2.173584-.5127563-.5413208-.750061-.9594727-.7589722-.9753418-.2592773-.4838867-.8603516-.668457-1.3481445-.4121094-.4887695.2578125-.675293.862793-.4174805 1.3510742.026001.0493774.3828125.6921387 1.1430054 1.4798584-.2661743.199585-.5518188.3867188-.8720093.5465088-.4941406.246582-.6948242.847168-.4477539 1.3413086.1748047.3505859.5283203.5532227.8955078.5532227.1499023 0 .3022461-.0336914.4458008-.1054688.5927734-.2958374 1.1032104-.6498413 1.5562134-1.0328979.4523315.3028564.9486084.5979004 1.5326538.8556519.1313477.0576172.2685547.0854492.4033203.0854492.3842773 0 .7504883-.2226563.9155273-.5966797.2226563-.5053711-.0063477-1.0957031-.5112305-1.3188477-.3574219-.1577148-.6716309-.3330078-.9656372-.5134277.9053345-1.2636108 1.3475952-2.5859375 1.5535889-3.4318848h.7006226c.5522461 0 1-.4477539 1-1S53.308754 10.4772949 52.7565079 10.4772949zM41.9498672 15.0114746c-.1713867-.4667969-.6201172-.7807617-1.1171875-.7807617s-.9458008.3139648-1.1171875.7807617l-2.7636719 7.5366211c-.1899414.5185547.0761719 1.0927734.5947266 1.2832031.5200195.1904297 1.0932617-.0756836 1.2832031-.5947266l.4020996-1.0966797h3.2016602l.4020996 1.0966797c.1484375.4047852.53125.65625.9389648.65625.1142578 0 .2304688-.0200195.3442383-.0615234.5185547-.1904297.784668-.7646484.5947266-1.2832031L41.9498672 15.0114746zM39.9652481 20.1398926l.8674316-2.3657227.8674316 2.3657227H39.9652481z"/></svg>